<svg xmlns="http://www.w3.org/2000/svg" width="20" height="20" viewBox="0 0 20 20">
    <defs>
        <style>.a{fill:none;}.b{fill:#f6f5ff;}</style>
    </defs>
    <rect class="a" width="20" height="20" />
    <path class="b" d="M14,16.411a1.666,1.666,0,0,1,.085-.529H7.915A1.664,1.664,0,0,1,8,16.411,1.548,1.548,0,0,1,6.5,18,1.548,1.548,0,0,1,5,16.411a1.62,1.62,0,0,1,.582-1.255,2.29,2.29,0,0,1-.383-.873l-.391-1.973L2,1.059H.457C.205,1.059,0,.76,0,.49A.475.475,0,0,1,.457,0h2.1a.465.465,0,0,1,.445.373L4,4.235H17a.983.983,0,0,1,1,1.06l-1,6.352c-.089.52-.429,1.059-.936,1.059H6l.095,1.375c.069.35.363.743.7.743h8.816a.375.375,0,0,1,.11.017A1.564,1.564,0,0,1,17,16.411a1.5,1.5,0,1,1-3,0Z" transform="translate(0 1)" />
</svg>