<svg xmlns="http://www.w3.org/2000/svg" width="40" height="40" viewBox="0 0 40 40"><defs><style>.a,.c{fill:none;}.b{fill:#fff;}.c{stroke:#fff;opacity:0.4;}.d{stroke:none;}</style></defs><g transform="translate(10 10)"><rect class="a" width="20" height="20"/><path class="b" d="M8.96,15H5.53c0-.006,0-.069,0-.172.012-2.732.037-9.168,0-9.949H8.96V6.313l-.013.019-.01.014H8.96V6.313a3.4,3.4,0,0,1,3.092-1.672,3.748,3.748,0,0,1,2.821,1.112A4.861,4.861,0,0,1,16,9.2V15H12.57V9.585c0-1.5-.6-2.289-1.737-2.289a1.874,1.874,0,0,0-1.76,1.231,2.179,2.179,0,0,0-.113.82V15ZM3.633,15H.2V4.879h3.43V15ZM1.919,3.5H1.9A1.767,1.767,0,0,1,0,1.749,1.772,1.772,0,0,1,1.941,0,1.766,1.766,0,0,1,3.859,1.749,1.772,1.772,0,0,1,1.919,3.5Z" transform="translate(2 2)"/></g><g class="c"><circle class="d" cx="20" cy="20" r="20"/><circle class="a" cx="20" cy="20" r="19.5"/></g></svg>