<svg xmlns="http://www.w3.org/2000/svg" width="73.697" height="35.877" viewBox="0 0 73.697 35.877"><defs><style>.a{fill:#fff;}</style></defs><g transform="translate(-333.195 -256.998)"><path class="a" d="M936.793,258.192a3.617,3.617,0,0,0-5.332.064l-11.137,11.188a3.784,3.784,0,0,0-1.064,3.926c.5,1.375,1.787,1.866,3.378,2.446,2.187.8,3.978,2.359,3.978,4.7a4.855,4.855,0,0,1-4.716,4.806,4.908,4.908,0,0,1-4.731-4.852V260.8a3.7,3.7,0,0,0-3.705-3.8,3.941,3.941,0,0,0-3.852,3.93V280.6a12.278,12.278,0,1,0,24.556-.1,10.692,10.692,0,0,0-5.261-8.945l7.9-7.939A3.755,3.755,0,0,0,936.793,258.192Z" transform="translate(-531.069)"/><path class="a" d="M364.373,401.087a12.307,12.307,0,0,0-12.284,12.282,12.628,12.628,0,0,0,.977,4.709h-7.6a4.78,4.78,0,0,1-4.712-4.72,4.835,4.835,0,0,1,4.774-4.72,3.706,3.706,0,0,0,3.728-3.776,3.761,3.761,0,0,0-3.793-3.776,12.269,12.269,0,0,0-.2,24.537q.1,0,.2.005h18.922q.1,0,.2-.005a12.269,12.269,0,0,0-.208-24.537Zm0,16.991a4.72,4.72,0,1,1,4.721-4.707A4.737,4.737,0,0,1,364.373,418.078Z" transform="translate(0 -132.754)"/><path class="a" d="M674.163,266.541a4.719,4.719,0,1,0-4.726-4.783A4.869,4.869,0,0,0,674.163,266.541Z" transform="translate(-309.79 -0.097)"/></g></svg>