<svg xmlns="http://www.w3.org/2000/svg" width="20" height="20" viewBox="0 0 20 20"><defs><style>.a{fill:none;}.b{fill:#bcbfc2;}</style></defs><rect class="a" width="20" height="20"/><path class="b" d="M16.139,18a.917.917,0,0,1-.671-.291l-4.24-4.489a6.99,6.99,0,0,1-4.09,1.315A7.212,7.212,0,0,1,0,7.267,7.212,7.212,0,0,1,7.139,0a7.212,7.212,0,0,1,7.139,7.267A7.346,7.346,0,0,1,12.6,11.939L16.81,16.4a.96.96,0,0,1-.026,1.34A.916.916,0,0,1,16.139,18Zm-9-16.1A5.331,5.331,0,0,0,1.862,7.267a5.331,5.331,0,0,0,5.277,5.371,5.331,5.331,0,0,0,5.277-5.371A5.331,5.331,0,0,0,7.139,1.9Z" transform="translate(1.649 1)"/></svg>