<svg xmlns="http://www.w3.org/2000/svg" xmlns:xlink="http://www.w3.org/1999/xlink" width="100" height="100" viewBox="0 0 100 100"><defs><style>.a{fill:#fff;}.b{clip-path:url(#a);}.c{fill:#eeefee;}.d{fill:#7a3c97;}.e{fill:#fed19a;}.f{fill:#f6f5ff;}.g{fill:#63317d;}.h{fill:#e5a20c;}.i{fill:#481f66;}</style><clipPath id="a"><rect class="a" width="100" height="100" transform="translate(1398 2500)"/></clipPath></defs><g class="b" transform="translate(-1398 -2500)"><g transform="translate(1398 2500)"><path class="c" d="M11.922,42.924h20.56v5.043H11.922Z" transform="translate(1.325 4.769)"/><path class="d" d="M10.874,0H33.76V48.761H10.874Z" transform="translate(1.208 0)"/><path class="e" d="M41.92,9.435a7.875,7.875,0,0,0,4.111,1.134H85.673V25.434H46.857a9.493,9.493,0,0,0-5.668,1.877l-6.122,4.555-1.7,1.1a8.307,8.307,0,0,1-4.461,1.341,59.47,59.47,0,0,0-9.123.665c-2.861.543-4.244.861-4.777.991a.784.784,0,0,1-.535-.056.8.8,0,0,1-.439-.868c.568-3.269,5.222-4.573,7.83-5.049a8.857,8.857,0,0,0,2.6-.9h.006l.01-.006.01-.006a7.78,7.78,0,0,0,.824-.5H5.049a1.8,1.8,0,0,1-1.8-1.8v-.932a1.8,1.8,0,0,1,1.8-1.8h13.2a.536.536,0,0,0,.535-.535v-.173a.536.536,0,0,0-.535-.535H1.8A1.8,1.8,0,0,1,0,21v-.935a1.8,1.8,0,0,1,1.8-1.8H18.668a.555.555,0,0,0,.556-.446.535.535,0,0,0-.437-.618A.547.547,0,0,0,18.7,17.2H3.768a1.8,1.8,0,0,1-1.8-1.8h0v-.828a1.8,1.8,0,0,1,1.8-1.8h14.62a.536.536,0,0,0,.535-.535v-.276a.536.536,0,0,0-.535-.535h-8.7A1.792,1.792,0,0,1,8.409,10.9a1.812,1.812,0,0,1-.526-1.238A1.862,1.862,0,0,1,9.756,7.825h8.973a17.165,17.165,0,0,0,2.644-.206C33.345,5.559,39.4,7.9,41.92,9.435Z" transform="translate(0 0.757)"/><path class="f" d="M42.537,7.6H47.58v20.56H42.537Z" transform="translate(4.726 0.844)"/><path class="g" d="M46.115,6.549H94.876V29.436H46.115Z" transform="translate(5.124 0.728)"/><path class="e" d="M81.461,41.92a7.877,7.877,0,0,0-1.134,4.111V85.673H65.465V46.857a9.493,9.493,0,0,0-1.877-5.668l-4.555-6.122-1.11-1.7a8.307,8.307,0,0,1-1.341-4.461,59.47,59.47,0,0,0-.665-9.123c-.543-2.861-.861-4.244-.991-4.777a.784.784,0,0,1,.056-.535.8.8,0,0,1,.868-.439c3.269.568,4.573,5.222,5.049,7.83a8.858,8.858,0,0,0,.9,2.6v.006l.006.01.006.01a7.781,7.781,0,0,0,.5.824V5.049a1.8,1.8,0,0,1,1.8-1.8h.932a1.8,1.8,0,0,1,1.8,1.8v13.2a.536.536,0,0,0,.535.535h.173a.536.536,0,0,0,.535-.535V1.8A1.8,1.8,0,0,1,69.9,0h.939a1.8,1.8,0,0,1,1.8,1.8V18.668a.555.555,0,0,0,.446.556.535.535,0,0,0,.618-.437.548.548,0,0,0,.008-.091V3.768a1.8,1.8,0,0,1,1.8-1.8h.829a1.8,1.8,0,0,1,1.8,1.8V18.387a.536.536,0,0,0,.535.535h.276a.536.536,0,0,0,.535-.535v-8.7A1.792,1.792,0,0,1,80,8.409a1.812,1.812,0,0,1,1.238-.526,1.862,1.862,0,0,1,1.833,1.873v8.973a17.163,17.163,0,0,0,.206,2.644C85.34,33.345,83,39.4,81.461,41.92Z" transform="translate(6.1 0)"/><path class="f" d="M61.88,42.537H82.44V47.58H61.88Z" transform="translate(6.876 4.726)"/><path class="h" d="M60.833,46.115H83.72V94.876H60.833Z" transform="translate(6.759 5.124)"/><path class="e" d="M56.648,60.707a7.875,7.875,0,0,1-4.111,1.134H12.894V76.706H51.711a9.493,9.493,0,0,1,5.668,1.877L63.5,83.138l1.7,1.1a8.307,8.307,0,0,0,4.461,1.341,59.47,59.47,0,0,1,9.123.665c2.861.543,4.244.861,4.777.991a.784.784,0,0,0,.535-.056.8.8,0,0,0,.439-.868c-.568-3.269-5.222-4.573-7.83-5.049a8.858,8.858,0,0,1-2.6-.9H74.1l-.01-.006-.01-.006a7.78,7.78,0,0,1-.824-.5H93.519a1.8,1.8,0,0,0,1.8-1.8v-.932a1.8,1.8,0,0,0-1.8-1.8H80.32a.536.536,0,0,1-.535-.535v-.173a.536.536,0,0,1,.535-.535H96.767a1.8,1.8,0,0,0,1.8-1.8v-.935a1.8,1.8,0,0,0-1.8-1.8H79.9a.555.555,0,0,1-.556-.446.535.535,0,0,1,.437-.618.548.548,0,0,1,.091-.008H94.8a1.8,1.8,0,0,0,1.8-1.8h0v-.826a1.8,1.8,0,0,0-1.79-1.8H80.18a.536.536,0,0,1-.535-.535v-.276a.536.536,0,0,1,.535-.535h8.7a1.792,1.792,0,0,0,1.274-.526,1.812,1.812,0,0,0,.526-1.238A1.862,1.862,0,0,0,88.811,59.1H79.834a17.163,17.163,0,0,1-2.644-.206c-11.968-2.059-18.024.28-20.542,1.816Z" transform="translate(1.433 6.454)"/><path class="f" d="M42.923,58.869h5.043v20.56H42.923Z" transform="translate(4.769 6.541)"/><path class="i" d="M0,57.822H48.761V80.708H0Z" transform="translate(0 6.425)"/><path class="e" d="M31.505,52.807A7.875,7.875,0,0,1,30.371,48.7V47.463H15.505v.406a9.493,9.493,0,0,1-1.877,5.668L9.074,59.659l-1.1,1.7a8.307,8.307,0,0,0-1.341,4.461,59.47,59.47,0,0,1-.665,9.123C5.42,77.8,5.1,79.184,4.971,79.716a.784.784,0,0,0,.056.535.8.8,0,0,0,.868.439c3.269-.568,4.573-5.222,5.049-7.83a8.858,8.858,0,0,1,.9-2.6v-.006l.006-.01.006-.01a7.782,7.782,0,0,1,.5-.824V89.677a1.8,1.8,0,0,0,1.8,1.8H15.1a1.8,1.8,0,0,0,1.8-1.8v-13.2a.536.536,0,0,1,.535-.535H17.6a.536.536,0,0,1,.535.535V92.926a1.8,1.8,0,0,0,1.8,1.8h.932a1.8,1.8,0,0,0,1.8-1.8V76.058a.555.555,0,0,1,.446-.556.535.535,0,0,1,.618.437.547.547,0,0,1,.008.091V90.958a1.8,1.8,0,0,0,1.8,1.8h.829a1.8,1.8,0,0,0,1.8-1.8h0V76.339a.536.536,0,0,1,.535-.535h.276a.536.536,0,0,1,.535.535v8.7a1.792,1.792,0,0,0,.526,1.274,1.812,1.812,0,0,0,1.238.526,1.862,1.862,0,0,0,1.829-1.873V75.993a17.164,17.164,0,0,1,.206-2.644c2.064-11.968-.274-18.024-1.81-20.542Z" transform="translate(0.55 5.274)"/></g></g></svg>