<svg xmlns="http://www.w3.org/2000/svg" xmlns:xlink="http://www.w3.org/1999/xlink" width="30" height="30" viewBox="0 0 30 30"><defs><style>.a,.c{fill:#63317d;}.a{stroke:#707070;}.b{clip-path:url(#a);}</style><clipPath id="a"><rect class="a" width="30" height="30"/></clipPath></defs><g class="b"><path class="c" d="M15,30A15,15,0,0,0,25.607,4.393,15,15,0,0,0,4.393,25.607,14.9,14.9,0,0,0,15,30ZM15,2.344A12.656,12.656,0,1,1,2.344,15,12.671,12.671,0,0,1,15,2.344Zm-5.492,15.3a1.172,1.172,0,0,1,1.618.36,5.158,5.158,0,0,0,3.933,2.27,5.158,5.158,0,0,0,3.933-2.27,1.172,1.172,0,0,1,1.977,1.258,7.534,7.534,0,0,1-5.911,3.355,7.534,7.534,0,0,1-5.911-3.355,1.172,1.172,0,0,1,.36-1.618Zm12.64-3.409A1.172,1.172,0,0,0,22.9,12.17a5.484,5.484,0,0,0-3.572-1.447H17.754a1.172,1.172,0,1,0,0,2.344h1.582a5.718,5.718,0,0,1,2.058.9,1.167,1.167,0,0,0,.754.275ZM7.911,14.18a1.167,1.167,0,0,0,.714-.243,3.54,3.54,0,0,1,2.189-.869h1.491a1.172,1.172,0,0,0,0-2.344H10.851A5.8,5.8,0,0,0,7.2,12.079a1.172,1.172,0,0,0,.716,2.1Z" transform="translate(0 0)"/></g></svg>