<svg xmlns="http://www.w3.org/2000/svg" xmlns:xlink="http://www.w3.org/1999/xlink" width="100" height="100" viewBox="0 0 100 100"><defs><style>.a{fill:#fff;}.b{clip-path:url(#a);}.c{fill:#fed19a;}.d{fill:#f6f5ff;}.e{fill:#63317d;}.f{fill:#481f66;}.g{fill:#00bf8d;}.h{fill:#5c8018;}</style><clipPath id="a"><rect class="a" width="100" height="100" transform="translate(1397.714 2505.714)"/></clipPath></defs><g class="b" transform="translate(-1397.714 -2505.714)"><g transform="translate(1398 2519.843)"><path class="c" d="M96.237,44.2a1.831,1.831,0,0,1,.517,3.213L76.5,62.285A16.694,16.694,0,0,1,68.056,65.5L36.615,69.364a31.769,31.769,0,0,0-10.294,3.105l-7.889,3.917V52.637l3.274-.056a7.991,7.991,0,0,0,5.532-2.343,25.428,25.428,0,0,1,23.784-6.888L62.35,45.812l3.609.755a2.3,2.3,0,0,1,1.511,3.189l-.084.139h.028a6.374,6.374,0,0,1-6.35,2.937L52.252,51.6A1.394,1.394,0,0,1,52,51.574c-.644-.084-2.574-.167-2.8,1.511,0,0,.112,1.678,2.965,1.9h.084l10.913.7a18.672,18.672,0,0,0,9.866-2.1l16.537-8.672a8.319,8.319,0,0,1,6.669-.716Z" transform="translate(1.931 -9.369)"/><path class="d" d="M21.151,50.457V75.735A1.068,1.068,0,0,1,20.083,76.8H11.716V49.39h8.367A1.068,1.068,0,0,1,21.151,50.457Z" transform="translate(1.227 -8.669)"/><path class="e" d="M.7,46.554H14.923a.7.7,0,0,1,.7.7V80.009a.7.7,0,0,1-.7.7H.7a.7.7,0,0,1-.7-.7V47.254a.7.7,0,0,1,.7-.7Z" transform="translate(0 -8.966)"/><path class="f" d="M9.94,72.481a2.615,2.615,0,1,1-2.63-2.6h0A2.626,2.626,0,0,1,9.94,72.481Z" transform="translate(0.493 -6.522)"/><path class="g" d="M38.584,12.53H87.252V40.614H38.584Z" transform="translate(4.042 -12.53)"/><path class="h" d="M40.456,14.4H84.987V38.35H40.456Z" transform="translate(4.238 -12.334)"/><path class="g" d="M78.4,16.423H46.622a4.146,4.146,0,0,1-4.146,4.146h0V31.76a4.146,4.146,0,0,1,4.146,4.146H78.4a4.146,4.146,0,0,1,4.146-4.146V20.569A4.146,4.146,0,0,1,78.4,16.423Z" transform="translate(4.45 -12.122)"/><g transform="translate(51.63 6.161)"><circle class="h" cx="2.127" cy="2.127" r="2.127" transform="translate(0 5.755)"/><circle class="h" cx="2.127" cy="2.127" r="2.127" transform="translate(26.408 5.755)"/><ellipse class="h" cx="6.663" cy="7.881" rx="6.663" ry="7.881" transform="translate(8.667)"/></g><path class="g" d="M60.364,31.292v-.871a4.38,4.38,0,0,1-2.3-.661l.364-1.006a4,4,0,0,0,2.169.651c1.067,0,1.787-.616,1.787-1.472,0-.826-.586-1.334-1.7-1.787-1.531-.606-2.478-1.291-2.478-2.6a2.464,2.464,0,0,1,2.267-2.419v-.887H61.4v.827a4,4,0,0,1,1.952.526l-.376.992a3.629,3.629,0,0,0-1.891-.51c-1.157,0-1.592.691-1.592,1.291,0,.781.555,1.171,1.862,1.712,1.547.63,2.328,1.413,2.328,2.749a2.612,2.612,0,0,1-2.374,2.547v.917h-.949Z" transform="translate(6.083 -11.722)"/><path class="g" d="M60.132,20.237H61.26V31.294H60.132Z" transform="translate(6.3 -11.723)"/></g></g></svg>