<svg xmlns="http://www.w3.org/2000/svg" width="20" height="20" viewBox="0 0 20 20">
    <defs>
        <style>.a{opacity:0.7;}.b{fill:none;}.c{fill:#fff;}</style>
    </defs>
    <g class="a">
        <rect class="b" width="20" height="20" />
        <path class="c" d="M14.476,0H1.523A1.5,1.5,0,0,0,0,1.481V12.963a.376.376,0,0,0,.381.37H2.667v1.482A5.267,5.267,0,0,0,8,20a5.267,5.267,0,0,0,5.333-5.185V13.333h2.285a.376.376,0,0,0,.382-.37V1.481A1.5,1.5,0,0,0,14.476,0ZM8,10A1.926,1.926,0,0,1,6.057,8.095a1.863,1.863,0,0,1,.8-1.532l-.307-2.7a.471.471,0,0,1,.12-.37.492.492,0,0,1,.362-.159H8.971a.489.489,0,0,1,.362.159.474.474,0,0,1,.121.37l-.307,2.7a1.863,1.863,0,0,1,.8,1.532A1.926,1.926,0,0,1,8,10Zm0,7.778a3.01,3.01,0,0,1-3.048-2.963V13.333h6.1v1.482A3.01,3.01,0,0,1,8,17.778Z" transform="translate(18 20) rotate(180)" />
    </g>
</svg>