<svg xmlns="http://www.w3.org/2000/svg" width="20" height="20" viewBox="0 0 20 20">
    <defs>
        <style>.a{fill:#e82e56;}</style>
    </defs>
    <path class="a" d="M22.756,12.2,17.044,6.5a.556.556,0,0,0-.789,0l-.789.789a.544.544,0,0,0,0,.778L19.3,11.889H8a.556.556,0,0,0-.556.556v1.111A.556.556,0,0,0,8,14.111H19.3l-3.833,3.822a.556.556,0,0,0,0,.789l.789.778a.556.556,0,0,0,.789,0l5.711-5.7A.833.833,0,0,0,23,13.211v-.422a.856.856,0,0,0-.244-.589ZM20.411,13Zm-9.078,7.778H5.222V5.222h6.111a.556.556,0,0,0,.556-.556V3.556A.556.556,0,0,0,11.333,3H5.222A2.222,2.222,0,0,0,3,5.222V20.778A2.222,2.222,0,0,0,5.222,23h6.111a.556.556,0,0,0,.556-.556V21.333A.556.556,0,0,0,11.333,20.778Z" transform="translate(-3 -3)" />
</svg>