<svg xmlns="http://www.w3.org/2000/svg" width="81.852" height="32.316" viewBox="0 0 81.852 32.316"><defs><style>.a{fill:#fff;}</style></defs><g transform="translate(0)"><g transform="translate(0)"><path class="a" d="M709.461,455.29l8.8-8.8a2.98,2.98,0,0,0-4.215-4.214l-12.078,12.077V444.032a2.98,2.98,0,1,0-5.96,0v26.16a2.98,2.98,0,1,0,5.96,0V463.87c0-.033.005-.065.005-.1a3.44,3.44,0,0,1,6.879,0v6.42a2.98,2.98,0,1,0,5.96,0v-6.42A9.412,9.412,0,0,0,709.461,455.29Z" transform="translate(-696.008 -441.052)"/></g><g transform="translate(64.532)"><path class="a" d="M969.993,444.438a9.4,9.4,0,0,0-16.624,6.012h0l0,19.74a2.98,2.98,0,0,0,2.979,2.981h0a2.98,2.98,0,0,0,2.98-2.979l0-9.718h5.2a2.98,2.98,0,1,0,0-5.96h-5.193v-4.062h0a3.44,3.44,0,0,1,6.085-2.2,2.98,2.98,0,1,0,4.579-3.815Z" transform="translate(-953.364 -441.052)"/></g><g transform="translate(42.68 13.463)"><path class="a" d="M882.087,494.878a2.97,2.97,0,0,0-2.14.909,9.426,9.426,0,1,0,.037,16.743,2.98,2.98,0,0,0,5.083-2.111v-12.56A2.98,2.98,0,0,0,882.087,494.878Zm-6.447,12.756a3.466,3.466,0,1,1,3.466-3.466A3.47,3.47,0,0,1,875.641,507.634Z" transform="translate(-866.214 -494.741)"/></g><g transform="translate(21.353 13.287)"><path class="a" d="M797.034,494.179a2.968,2.968,0,0,0-2.14.909,9.427,9.427,0,1,0,.037,16.743,2.98,2.98,0,0,0,5.083-2.111v-12.56A2.98,2.98,0,0,0,797.034,494.179Zm-6.446,12.756a3.466,3.466,0,1,1,3.466-3.466A3.47,3.47,0,0,1,790.588,506.935Z" transform="translate(-781.161 -494.042)"/></g></g></svg>