<svg xmlns="http://www.w3.org/2000/svg" xmlns:xlink="http://www.w3.org/1999/xlink" width="100" height="100" viewBox="0 0 100 100"><defs><style>.a{fill:#fff;}.b{clip-path:url(#a);}.c{fill:#eaa14e;}.d{fill:#dd924e;}.e{fill:#f6b863;}.f{fill:#e82e56;}</style><clipPath id="a"><rect class="a" width="100" height="100" transform="translate(427 2501)"/></clipPath></defs><g class="b" transform="translate(-427 -2501)"><g transform="translate(427 2501)"><path class="c" d="M49.935,41.95h36.59V100H49.935Z"/><path class="d" d="M49.935,41.95h36.59V66.344H49.935Z"/><path class="c" d="M96.406,58.625H59.817L49.935,41.95h36.59Z"/><path class="e" d="M13.474,41.95h36.59V100H13.474Z"/><path class="c" d="M13.474,41.95h36.59V66.344H13.474Z"/><path class="e" d="M3.594,58.625H40.183L50.065,41.95H13.474Z"/><path class="f" d="M58.6,0A12.879,12.879,0,0,0,50,3.293a12.927,12.927,0,0,0-21.545,9.654C28.455,26.352,50,40.638,50,40.638S71.578,26.4,71.545,12.944A12.954,12.954,0,0,0,58.6,0Z"/></g></g></svg>