<svg xmlns="http://www.w3.org/2000/svg" xmlns:xlink="http://www.w3.org/1999/xlink" width="100" height="100" viewBox="0 0 100 100"><defs><style>.a{fill:#fff;stroke:#707070;}.b{clip-path:url(#a);}.c{fill:#f6f5ff;}.d{fill:#575b6d;}.e{fill:#dbd8dd;}.f{fill:#414451;}.g{fill:#eeefee;}.h{fill:#e5a20c;}.i{fill:#481f66;}.j{fill:#63317d;}</style><clipPath id="a"><rect class="a" width="100" height="100" transform="translate(1393 2913)"/></clipPath></defs><g class="b" transform="translate(-1393 -2913)"><g transform="translate(1393 2913)"><path class="c" d="M0,37.84H77.274V74.579H0Z"/><path class="d" d="M27.9,55.17v-1.72A4.962,4.962,0,0,1,25.3,52.7l.408-1.142a4.539,4.539,0,0,0,2.452.732c1.21,0,2.027-.7,2.027-1.67,0-.937-.665-1.516-1.926-2.027-1.737-.681-2.8-1.463-2.8-2.946a2.794,2.794,0,0,1,2.572-2.743v-1.72h1.055v1.651a4.543,4.543,0,0,1,2.215.6l-.426,1.124a4.115,4.115,0,0,0-2.146-.579c-1.312,0-1.806.784-1.806,1.463,0,.885.631,1.329,2.112,1.941,1.755.716,2.64,1.6,2.64,3.117a2.963,2.963,0,0,1-2.692,2.9V55.17H27.9Z"/><path class="e" d="M36.272,44.2H64.039v1.766H36.272Z"/><path class="e" d="M36.272,50.391H48.464v1.766H36.272Z"/><path class="e" d="M34.263,56.651h2.822v2.973H34.263Z"/><path class="e" d="M39.747,56.651h2.822v2.973H39.747Z"/><path class="e" d="M45.23,56.651h2.822v2.973H45.23Z"/><path class="e" d="M50.714,56.651h2.822v2.973H50.714Z"/><path class="e" d="M56.2,56.651H59.02v2.973H56.2Z"/><path class="e" d="M61.681,56.651H64.5v2.973H61.681Z"/><path class="f" d="M48.658,71.6a1.664,1.664,0,0,1-.876-.228c-.583-.352-.817-.794-1.043-1.971l1.047-.2c.2,1.05.346,1.138.548,1.258a1.161,1.161,0,0,0,.838-.012,3.884,3.884,0,0,0,.54-.206,2,2,0,0,1-.594-.824c-1.219-3.129-.269-5.788,1.347-6.55a1.968,1.968,0,0,1,2.612.962l.023.052a3.736,3.736,0,0,1,.461,1.966,6.454,6.454,0,0,1-1.506,3.883,3.643,3.643,0,0,0,1.267-.412l.062-.035A1.638,1.638,0,0,1,54.8,69.07l.078.016a4.634,4.634,0,0,0,3.177-.528l.534.923a5.722,5.722,0,0,1-3.917.651l-.085-.017a1.141,1.141,0,0,0-.378-.041,1.154,1.154,0,0,0-.291.137l-.07.039a4.632,4.632,0,0,1-2.927.524,5.087,5.087,0,0,1-1.439.7,2.909,2.909,0,0,1-.821.131Zm2.64-7.862a.883.883,0,0,0-.378.093c-1,.472-1.84,2.541-.809,5.2a1.007,1.007,0,0,0,.583.571,5.325,5.325,0,0,0,1.8-3.8,2.666,2.666,0,0,0-.326-1.4,1.09,1.09,0,0,0-.874-.662Z"/><path class="f" d="M59.347,67.575H60.4V68.72H59.347Z" transform="translate(-25.675 37.965) rotate(-29.283)"/><path class="g" d="M99.337,25.708l.081.06a1.446,1.446,0,0,1,.3,2.024l-1.239,1.663-2.4-1.789L97.313,26a1.446,1.446,0,0,1,2.024-.3Z"/><path class="h" d="M98.82,36.926a2.724,2.724,0,0,0-.241-3.845q-.086-.076-.179-.145l-1.277-.951a.585.585,0,0,0-.715,0,.572.572,0,0,0,.015.9l1.255.935a1.657,1.657,0,0,1,.643.946,1.568,1.568,0,0,1-.354,1.4L91.636,44.6a.539.539,0,0,0,.108.755l.005,0a.539.539,0,0,0,.746-.108Z"/><path class="i" d="M98.184,27.339a3.39,3.39,0,0,0-4.744.692h0L83.763,41.016,89.2,45.068l9.676-12.984a3.39,3.39,0,0,0-.692-4.744h0Z"/><path class="j" d="M65.4,50.884H91.838v5.551H65.4Z" transform="translate(-11.381 84.601) rotate(-53.29)"/><path class="i" d="M68.465,62.575l-2.093,7.451,6.543-4.137Z"/><path class="e" d="M25.3,67.407H42.368v1.518H25.3Z"/><path class="e" d="M16.511,37.84h1.665v3.545H16.511Z"/><path class="e" d="M16.516,37.843H18.18v3.122H16.516Z"/><path class="e" d="M16.516,43.445H18.18v3.122H16.516Z"/><path class="e" d="M16.516,49.047H18.18v3.122H16.516Z"/><path class="e" d="M16.516,54.65H18.18v3.122H16.516Z"/><path class="e" d="M16.516,60.252H18.18v3.122H16.516Z"/><path class="e" d="M16.516,65.855H18.18v3.122H16.516Z"/><path class="e" d="M16.516,71.457H18.18v3.122H16.516Z"/></g></g></svg>