<svg xmlns="http://www.w3.org/2000/svg" xmlns:xlink="http://www.w3.org/1999/xlink" width="20" height="20" viewBox="0 0 20 20">
    <defs>
        <style>.a{fill:#fff;}.b{opacity:0.7;clip-path:url(#a);}</style>
        <clipPath id="a">
            <rect class="a" width="20" height="20" />
        </clipPath>
    </defs>
    <g class="b">
        <g transform="translate(0)">
            <path class="a" d="M13.022,8.907c.324,5.067,2.5,6.246,2.614,6.3l.534-1.043c-.019-.01-1.229-.739-1.77-3.561a5.94,5.94,0,0,1,5.388,5.233A31.084,31.084,0,0,1,20,19.414V20H15.312v-.586c0-.564-.419-.953-1.222-1.649-1.38-1.195-3.5-3.04-3.5-7.766V7.07h.606a1.941,1.941,0,0,1,1.831,1.837Z" transform="translate(-10.586)" />
            <path class="a" d="M5.909,17.766c-.8.7-1.222,1.084-1.222,1.649V20H0v-.586a31.076,31.076,0,0,1,.211-3.574A5.94,5.94,0,0,1,5.6,10.608c-.541,2.822-1.751,3.551-1.77,3.561l.534,1.043c.117-.059,2.29-1.238,2.614-6.3A1.941,1.941,0,0,1,8.808,7.07h.606V10C9.414,14.725,7.289,16.571,5.909,17.766Z" transform="translate(10.586)" />
            <path class="a" d="M5,0C2.7,0,1.015.487,0,1.448A4.153,4.153,0,0,0,2.941,5.5l.224-.1A4.084,4.084,0,0,1,5,4.889a3.807,3.807,0,0,1,1.663.44c.135.061.263.119.4.171A4.5,4.5,0,0,0,9.177,3.992,4.18,4.18,0,0,0,10,1.448C8.984.487,7.3,0,5,0ZM5,6.111A2.445,2.445,0,1,0,7.5,8.556,2.476,2.476,0,0,0,5,6.111Z" transform="translate(15 11) rotate(180)" />
        </g>
    </g>
</svg>