<svg xmlns="http://www.w3.org/2000/svg" xmlns:xlink="http://www.w3.org/1999/xlink" width="30" height="30" viewBox="0 0 30 30"><defs><style>.a{fill:#e82e56;stroke:#e82e56;stroke-linecap:round;stroke-linejoin:round;stroke-width:0.3px;}.b{clip-path:url(#a);}</style><clipPath id="a"><rect class="a" width="30" height="30"/></clipPath></defs><g class="b"><path class="a" d="M.352,21.018,11.59,2.381a2.461,2.461,0,0,1,4.216,0L27.044,21.018a2.461,2.461,0,0,1-2.108,3.732H2.46A2.461,2.461,0,0,1,.352,21.018Zm1.518,1.6a.679.679,0,0,0,.59.344H24.936a.678.678,0,0,0,.58-1.027L14.278,3.3a.678.678,0,0,0-1.161,0L1.88,21.94A.678.678,0,0,0,1.87,22.623Z" transform="translate(1.304 2.029)"/><path class="a" d="M8.946,5.745c.679,0,1.208.364,1.208,1.01,0,1.969-.232,4.8-.232,6.769,0,.513-.447.728-.976.728-.4,0-.96-.215-.96-.728,0-1.969-.232-4.8-.232-6.769A1.063,1.063,0,0,1,8.946,5.745Z" transform="translate(6.046 4.815)"/><path class="a" d="M8.982,11.73a1.274,1.274,0,0,1,0,2.549,1.274,1.274,0,0,1,0-2.549Z" transform="translate(5.993 8.476)"/></g></svg>