<svg xmlns="http://www.w3.org/2000/svg" xmlns:xlink="http://www.w3.org/1999/xlink" width="70" height="70" viewBox="0 0 70 70"><defs><style>.a,.d{fill:#481f66;}.a{stroke:#707070;}.b{fill:#fff;stroke:#d9dadb;stroke-miterlimit:10;}.c{clip-path:url(#a);}.e{stroke:none;}.f{fill:none;}</style><clipPath id="a"><rect class="a" width="40" height="40"/></clipPath></defs><g class="b"><rect class="e" width="70" height="70" rx="10"/><rect class="f" x="0.5" y="0.5" width="69" height="69" rx="9.5"/></g><g class="c" transform="translate(15 15)"><g transform="translate(0 0)"><path class="d" d="M40,10.333H37V5a.667.667,0,0,0-.667-.667h-2V3.667a2,2,0,1,0-4,0v.667H25a.667.667,0,1,0-1.333,0H23a.667.667,0,1,0-1.333,0H21a.667.667,0,1,0-1.333,0H19a.667.667,0,1,0-1.333,0H10.333V3.667a2,2,0,0,0-4,0v.667H6A1.667,1.667,0,1,0,6,7.667h.333V29h-4a.667.667,0,0,0-.667.667v4a.667.667,0,0,0,.667.667H3.667V41a.667.667,0,0,0,.667.667h32A.667.667,0,0,0,37,41V34.333h1.333A.667.667,0,0,0,39,33.667v-4A.667.667,0,0,0,38.333,29h-4V7.667h1.333V13a.667.667,0,0,0,.667.667H40a1.667,1.667,0,0,0,0-3.333ZM31.667,3.667a.667.667,0,1,1,1.333,0V29H31.667Zm-1.333,2v.667H23V5.667Zm-8.667,0v.667H21V5.667Zm2.407,14.667-.313,4.053A.667.667,0,0,1,23.1,25H17.567a.667.667,0,0,1-.66-.613l-.313-4.053h1.073V19h-1.18l-.1-1.333H24.28L24.18,19H19v1.333Zm-8.407-4v-.667H25v.667Zm1.48-2,.293-1.467a.667.667,0,0,1,.653-.533h4.48a.667.667,0,0,1,.653.533l.293,1.467Zm2.52-8.667v.667H19V5.667Zm-9.333,0h7.333v.667H10.333Zm0,2h5.333a.667.667,0,0,0,1.333,0h.667a.667.667,0,1,0,1.333,0h.667V11H18.093a2,2,0,0,0-1.96,1.607l-.347,1.727H15a.667.667,0,0,0-.667.667v2a.667.667,0,0,0,.667.667h.047l.527,6.82a2.009,2.009,0,0,0,1.993,1.847H23.1a2.009,2.009,0,0,0,1.993-1.847l.527-6.82h.047A.667.667,0,0,0,26.333,17V15a.667.667,0,0,0-.667-.667H24.88l-.347-1.727A2,2,0,0,0,22.573,11H21V7.667h.667a.667.667,0,1,0,1.333,0h7.333V29h-20Zm-2.667-4A.667.667,0,1,1,9,3.667V29H7.667ZM6,6.333a.333.333,0,0,1,0-.667h.333v.667Zm.333,34H5V39H6.333ZM5,37.667V36.333H9.667v1.333Zm22.667,2.667H21V39h6.667ZM25,37.667V36.333h6.667v1.333Zm10.667,2.667H29V39h6.667Zm0-2.667H33v-2A.667.667,0,0,0,32.333,35h-8a.667.667,0,0,0-.667.667v2H20.333a.667.667,0,0,0-.667.667v2h-12V39h2.667A.667.667,0,0,0,11,38.333V35.667A.667.667,0,0,0,10.333,35H5v-.667H35.667Zm2-7.333V33H3V30.333Zm-2-24H34.333V5.667h1.333Zm4.333,6H37v-.667h3a.333.333,0,0,1,0,.667Z" transform="translate(-1.667 -1.667)"/></g></g></svg>