<svg xmlns="http://www.w3.org/2000/svg" width="40" height="40" viewBox="0 0 40 40"><defs><style>.a,.c{fill:none;}.b{fill:#fff;}.c{stroke:#fff;opacity:0.4;}.d{stroke:none;}</style></defs><g transform="translate(10 10)"><rect class="a" width="20" height="20"/><path class="b" d="M9,14.4a42.749,42.749,0,0,1-6.659-.731A2.776,2.776,0,0,1,0,10.922V3.477A2.76,2.76,0,0,1,2.331.74l.01-.011A43.082,43.082,0,0,1,9,0a41.357,41.357,0,0,1,6.662.733A2.766,2.766,0,0,1,18,3.477v7.447a2.768,2.768,0,0,1-2.341,2.746A42.712,42.712,0,0,1,9,14.4ZM7.2,4.05v6.3L12.6,7.2Z" transform="translate(1 2.8)"/></g><g class="c"><circle class="d" cx="20" cy="20" r="20"/><circle class="a" cx="20" cy="20" r="19.5"/></g></svg>