<svg xmlns="http://www.w3.org/2000/svg" xmlns:xlink="http://www.w3.org/1999/xlink" width="20" height="20" viewBox="0 0 20 20"><defs><style>.a{fill:#fff;stroke:#707070;}.b{clip-path:url(#a);}.c{fill:#464655;}.d{fill:#73af00;}.e{fill:#f5f5f5;}.f{fill:#ff4b55;}</style><clipPath id="a"><rect class="a" width="20" height="20"/></clipPath></defs><g class="b"><g transform="translate(0.262 3.62)"><path class="c" d="M18.018,3.1H1.459A1.459,1.459,0,0,0,0,4.562V7.357H19.477V4.562A1.459,1.459,0,0,0,18.018,3.1Z" transform="translate(0 -3.103)"/><path class="d" d="M0,13.76a1.459,1.459,0,0,0,1.459,1.459H18.018a1.459,1.459,0,0,0,1.459-1.459V10.966H0Z" transform="translate(0 -2.459)"/><rect class="e" width="19.477" height="4.253" transform="translate(0 4.253)"/><path class="f" d="M.488,15.466,7.84,9.63a.222.222,0,0,0,0-.348L.488,3.446A1.455,1.455,0,0,0,0,4.534v9.843A1.455,1.455,0,0,0,.488,15.466Z" transform="translate(0 -3.075)"/></g></g></svg>